<svg width="126" height="54" viewBox="0 0 126 54" fill="none" xmlns="http://www.w3.org/2000/svg">
<path fill-rule="evenodd" clip-rule="evenodd" d="M17.6791 0C18.0472 0.360005 18.4153 0.700805 18.7784 1.037C19.1319 1.36422 19.4806 1.6871 19.8201 2.01904C23.7961 5.98234 27.3133 10.3195 30.2189 15.1054C32.3216 18.5827 33.9655 22.2469 34.883 26.2101C36.1829 31.7438 35.1125 36.8662 31.9775 41.5773C28.422 46.8867 23.6049 50.8125 17.9849 53.9159C17.832 54.028 17.4879 54.028 17.335 53.9159C13.7413 51.8595 10.4152 49.4291 7.47138 46.5127C5.10109 44.1198 3.07484 41.5025 1.69852 38.4366C-0.213032 34.2863 -0.442418 30.0239 0.666282 25.6493C1.77498 21.1251 3.87769 17.0123 6.43917 13.1238C9.57411 8.30048 13.3208 3.9633 17.6791 0ZM20.2406 40.5304C20.1393 40.3413 20.0402 40.1543 19.9423 39.9696C19.6337 39.3872 19.3364 38.8263 19.0172 38.287C18.8643 38.0253 18.9025 37.8384 19.1319 37.614C20.1641 36.6418 21.0816 35.5576 21.7698 34.2863C22.8403 32.3046 23.0315 30.2856 22.1139 28.2292C21.2346 26.2475 19.7436 24.7146 18.0232 23.3685C17.9085 23.2938 17.6026 23.3312 17.4879 23.4059C16.1881 24.2659 15.0411 25.3128 14.0854 26.5093C12.7473 28.2292 11.868 30.0987 11.6004 32.2299C11.2945 34.5107 11.6386 36.7166 12.2503 38.8853C13.3207 42.8485 15.1941 46.4753 17.335 49.99C17.4879 50.2143 17.6409 50.4387 17.832 50.7377C18.2219 50.4725 18.6041 50.222 18.9789 49.9765C19.4495 49.6681 19.9084 49.3674 20.3553 49.0552C23.8725 46.5501 27.0075 43.7085 29.416 40.1565C31.6334 36.8288 32.895 33.202 32.4363 29.1265C32.0539 25.7615 30.907 22.6207 29.416 19.5922C29.3396 19.48 29.1102 19.3678 28.9572 19.3678C26.5869 19.6669 24.2548 20.1904 21.9992 21.0504C21.8737 21.1015 21.751 21.1527 21.6265 21.2046C21.2959 21.3424 20.9525 21.4857 20.5082 21.6486C20.6188 21.7388 20.7117 21.8028 20.791 21.8576C20.8762 21.9164 20.9458 21.9644 21.0052 22.0225C22.305 23.1816 23.4138 24.4528 24.293 25.9484C25.4782 28.0049 25.9753 30.2109 25.5165 32.529C24.8283 35.8941 22.7639 38.287 20.2406 40.5304ZM17.6026 9.45959C18.2525 10.2074 18.9025 10.9177 19.5523 11.6281C19.495 11.6842 19.4377 11.731 19.3804 11.7777C19.323 11.8245 19.2657 11.8712 19.2083 11.9273C18.0996 12.8995 17.1439 13.9837 16.4939 15.3298C15.844 16.6384 15.9969 17.8349 16.991 18.9192C17.0567 18.9995 17.1366 19.073 17.2153 19.1454C17.3198 19.2416 17.4226 19.3361 17.4879 19.4426C17.7173 19.7417 17.9467 19.7417 18.2908 19.5922C20.47 18.4705 22.7256 17.6853 25.1342 17.1993C25.6591 17.0826 26.1841 16.9804 26.7276 16.8747C27.0549 16.8111 27.389 16.746 27.7339 16.6758C24.9048 11.9647 21.5405 7.85181 17.7173 3.9633C17.6354 4.04345 17.5534 4.11286 17.4774 4.17729C17.4115 4.23308 17.35 4.28514 17.2968 4.3372C14.6206 7.06665 12.1739 9.94566 9.99468 13.049C7.31848 16.8253 5.10109 20.7513 3.763 25.1633C2.46314 29.4257 2.50137 33.6133 4.52762 37.6888C5.78924 40.2313 7.47138 42.4373 9.49766 44.4563C10.224 45.1667 10.9887 45.8771 11.715 46.5501C11.4857 45.9269 11.2223 45.3371 10.9589 44.7471C10.8272 44.4521 10.6955 44.1572 10.5681 43.8581C9.07708 40.3808 8.15956 36.8288 8.54187 33.0151C8.92419 29.0144 10.6446 25.6493 13.5884 22.8451C14.1236 22.3217 14.7353 21.8356 15.3469 21.3495C15.1558 21.1625 14.9647 20.9756 14.8118 20.7887C13.5501 19.4052 12.9767 17.7975 13.3208 15.9654C13.7796 13.1985 15.5764 11.2917 17.6026 9.45959Z" fill="#000"/>
<path d="M49.6275 23.75V16.4162H47.8562V19.1923H44.9973V16.4162H43.226V23.75H44.9973V20.6839H47.8562V23.75H49.6275ZM54.0886 21.6783C54.0886 22.3205 53.7054 22.7349 53.0217 22.7349C52.6799 22.7349 52.2862 22.6002 52.2862 22.2066C52.2862 21.5954 53.1253 21.5022 53.8711 21.5022H54.0886V21.6783ZM51.8305 20.2178C52.1412 19.9277 52.6177 19.6895 53.1046 19.6895C53.6328 19.6895 54.0368 19.9277 54.0368 20.4353V20.5182C52.5348 20.5182 50.7221 20.7668 50.7221 22.2584C50.7221 23.4703 51.7787 23.8743 52.597 23.8743C53.2082 23.8743 53.7986 23.6257 54.0575 23.201H54.0886V23.75H55.6424V21.15C55.6424 19.2751 55.0002 18.4257 53.2703 18.4257C52.4313 18.4257 51.5715 18.7261 50.9707 19.2958L51.8305 20.2178ZM60.3286 18.4879C60.2458 18.4568 60.1008 18.4465 59.9661 18.4465C59.3342 18.4465 58.8267 18.8194 58.5677 19.3373H58.547V18.5915H56.9103V23.75H58.6091V21.0982C58.6091 20.6735 58.9095 19.9277 59.8211 19.9277C59.9557 19.9277 60.1008 19.9381 60.2561 19.9795L60.3286 18.4879ZM62.8611 16.9445C62.8611 16.4265 62.4261 16.0122 61.8874 16.0122C61.3384 16.0122 60.9137 16.4473 60.9137 16.9445C60.9137 17.452 61.3384 17.8767 61.8874 17.8767C62.4261 17.8767 62.8611 17.4728 62.8611 16.9445ZM62.7368 23.75V18.5915H61.038V23.75H62.7368ZM73.5604 23.75L70.2146 19.7931L73.3739 16.4162H71.1572L68.5365 19.3994H68.5055V16.4162H66.7652V23.75H68.5055V20.3731H68.5262L71.2505 23.75H73.5604ZM77.4545 18.4879C77.3717 18.4568 77.2267 18.4465 77.092 18.4465C76.4601 18.4465 75.9526 18.8194 75.6936 19.3373H75.6729V18.5915H74.0362V23.75H75.735V21.0982C75.735 20.6735 76.0354 19.9277 76.947 19.9277C77.0816 19.9277 77.2267 19.9381 77.382 19.9795L77.4545 18.4879ZM79.987 16.9445C79.987 16.4265 79.552 16.0122 79.0133 16.0122C78.4643 16.0122 78.0396 16.4473 78.0396 16.9445C78.0396 17.452 78.4643 17.8767 79.0133 17.8767C79.552 17.8767 79.987 17.4728 79.987 16.9445ZM79.8627 23.75V18.5915H78.1639V23.75H79.8627ZM85.1756 19.1508C84.668 18.6743 83.8704 18.4257 83.1039 18.4257C82.1198 18.4257 80.9597 18.9229 80.9597 20.1556C80.9597 21.1293 81.7469 21.4918 82.4617 21.6576C83.166 21.8233 83.4871 21.9269 83.4871 22.248C83.4871 22.5795 83.1557 22.6934 82.876 22.6934C82.3788 22.6934 81.9127 22.4448 81.6123 22.1134L80.6593 23.1181C81.1979 23.6361 82.068 23.9157 82.9071 23.9157C83.9636 23.9157 85.1134 23.46 85.1134 22.1548C85.1134 21.15 84.2537 20.7564 83.4664 20.5803C82.8035 20.4353 82.5238 20.3524 82.5238 20.0624C82.5238 19.762 82.8449 19.648 83.166 19.648C83.5804 19.648 83.974 19.8552 84.2433 20.1142L85.1756 19.1508ZM91.2009 23.75V20.5596C91.2009 19.5237 90.7141 18.4465 89.3157 18.4465C88.6009 18.4465 88.0623 18.8297 87.8344 19.2441H87.8137V15.919H86.1149V23.75H87.8137V20.9636C87.8137 20.3524 88.1452 19.8656 88.7356 19.8656C89.3467 19.8656 89.4918 20.3731 89.4918 20.9532V23.75H91.2009ZM97.5837 23.75V20.5596C97.5837 19.5237 97.0865 18.4465 95.6984 18.4465C94.9837 18.4465 94.3933 18.8504 94.155 19.3062H94.1343V18.5915H92.4873V23.75H94.1965V20.9532C94.1965 20.3628 94.5072 19.8448 95.108 19.8448C95.7192 19.8448 95.8745 20.3628 95.8745 20.9325V23.75H97.5837ZM101.916 21.6783C101.916 22.3205 101.532 22.7349 100.849 22.7349C100.507 22.7349 100.113 22.6002 100.113 22.2066C100.113 21.5954 100.952 21.5022 101.698 21.5022H101.916V21.6783ZM99.6576 20.2178C99.9683 19.9277 100.445 19.6895 100.932 19.6895C101.46 19.6895 101.864 19.9277 101.864 20.4353V20.5182C100.362 20.5182 98.5492 20.7668 98.5492 22.2584C98.5492 23.4703 99.6058 23.8743 100.424 23.8743C101.035 23.8743 101.626 23.6257 101.885 23.201H101.916V23.75H103.469V21.15C103.469 19.2751 102.827 18.4257 101.097 18.4257C100.258 18.4257 99.3986 18.7261 98.7978 19.2958L99.6576 20.2178ZM48.3431 35.75V34.2377H44.9351V32.715H47.9805V31.2958H44.9351V29.9182H48.1566V28.4162H43.226V35.75H48.3431ZM54.9458 35.75L52.9052 33.0464L54.7593 30.5915H52.843L51.8693 31.9692L50.906 30.5915H48.9275L50.792 33.0464L48.7307 35.75H50.6988L51.8382 34.1652L52.9466 35.75H54.9458ZM61.3137 33.15C61.3137 31.7102 60.371 30.4465 58.8691 30.4465C58.1129 30.4465 57.5328 30.809 57.2221 31.2233H57.191V30.5915H55.5751V38.236H57.2739V35.1803H57.2946C57.6157 35.6257 58.2268 35.895 58.8587 35.895C60.4125 35.895 61.3137 34.5898 61.3137 33.15ZM59.6667 33.15C59.6667 33.8233 59.2627 34.4863 58.4547 34.4863C57.6882 34.4863 57.2117 33.8337 57.2117 33.1604C57.2117 32.5078 57.6882 31.8345 58.4547 31.8345C59.2627 31.8345 59.6667 32.4871 59.6667 33.15ZM67.8522 33.15C67.8522 31.4616 66.5471 30.4257 64.9829 30.4257C63.4291 30.4257 62.124 31.4616 62.124 33.15C62.124 34.8385 63.4291 35.9157 64.9829 35.9157C66.5471 35.9157 67.8522 34.8385 67.8522 33.15ZM66.2156 33.15C66.2156 33.813 65.7909 34.4863 64.9933 34.4863C64.1957 34.4863 63.771 33.813 63.771 33.15C63.771 32.4871 64.1853 31.8345 64.9829 31.8345C65.7805 31.8345 66.2156 32.4871 66.2156 33.15ZM72.3461 30.4879C72.2632 30.4568 72.1182 30.4465 71.9836 30.4465C71.3517 30.4465 70.8441 30.8194 70.5852 31.3373H70.5644V30.5915H68.9278V35.75H70.6266V33.0982C70.6266 32.6735 70.927 31.9277 71.8385 31.9277C71.9732 31.9277 72.1182 31.9381 72.2736 31.9795L72.3461 30.4879ZM75.9692 31.8656V30.5915H74.7572V29.2345H73.0895V30.5915H72.2712V31.8656H73.0999V34.0408C73.0999 35.1388 73.5556 35.8743 74.9333 35.8743C75.2959 35.8743 75.6895 35.8018 75.9174 35.7189L75.8966 34.4759C75.7723 34.5277 75.5652 34.5588 75.3994 34.5588C74.9126 34.5588 74.7572 34.3102 74.7572 33.8337V31.8656H75.9692ZM80.7348 31.1508C80.2272 30.6743 79.4296 30.4257 78.6631 30.4257C77.679 30.4257 76.5189 30.9229 76.5189 32.1556C76.5189 33.1293 77.3061 33.4918 78.0209 33.6576C78.7252 33.8233 79.0464 33.9269 79.0464 34.248C79.0464 34.5795 78.7149 34.6934 78.4352 34.6934C77.938 34.6934 77.4719 34.4448 77.1715 34.1134L76.2185 35.1181C76.7571 35.6361 77.6272 35.9157 78.4663 35.9157C79.5228 35.9157 80.6726 35.46 80.6726 34.1548C80.6726 33.15 79.8129 32.7564 79.0256 32.5803C78.3627 32.4353 78.083 32.3524 78.083 32.0624C78.083 31.762 78.4041 31.648 78.7252 31.648C79.1396 31.648 79.5332 31.8552 79.8025 32.1142L80.7348 31.1508ZM89.8987 30.6743C89.8987 28.9963 88.635 28.4162 87.0294 28.4162H84.3362V35.75H86.1075V32.9843H86.988C88.5211 32.9843 89.8987 32.3731 89.8987 30.6743ZM88.1274 30.6847C88.1274 31.3787 87.5163 31.5755 86.8533 31.5755H86.1075V29.8457H86.8844C87.5163 29.8457 88.1274 29.9803 88.1274 30.6847ZM96.0895 30.5915H94.2767L93.1891 33.9373H93.158L92.0704 30.5915H90.1955L92.2258 35.75H94.0592L96.0895 30.5915ZM99.8018 31.8656V30.5915H98.5898V29.2345H96.9221V30.5915H96.1038V31.8656H96.9325V34.0408C96.9325 35.1388 97.3882 35.8743 98.7659 35.8743C99.1285 35.8743 99.5221 35.8018 99.75 35.7189L99.7293 34.4759C99.605 34.5277 99.3978 34.5588 99.2321 34.5588C98.7452 34.5588 98.5898 34.3102 98.5898 33.8337V31.8656H99.8018ZM102.537 34.8385C102.537 34.2687 102.061 33.8233 101.501 33.8233C100.921 33.8233 100.445 34.2895 100.445 34.8488C100.445 35.4185 100.932 35.8536 101.501 35.8536C102.061 35.8536 102.537 35.4082 102.537 34.8385ZM110.695 35.75V34.2066H107.857V28.4162H106.075V35.75H110.695ZM114.49 31.8656V30.5915H113.278V29.2345H111.61V30.5915H110.792V31.8656H111.62V34.0408C111.62 35.1388 112.076 35.8743 113.454 35.8743C113.816 35.8743 114.21 35.8018 114.438 35.7189L114.417 34.4759C114.293 34.5277 114.086 34.5588 113.92 34.5588C113.433 34.5588 113.278 34.3102 113.278 33.8337V31.8656H114.49ZM120.757 35.75V27.919H119.059V31.1405H119.038C118.748 30.7986 118.22 30.4465 117.463 30.4465C115.961 30.4465 115.029 31.7102 115.029 33.15C115.029 34.5898 115.93 35.895 117.484 35.895C118.168 35.895 118.841 35.5946 119.173 35.0767H119.193V35.75H120.757ZM119.131 33.1604C119.131 33.8337 118.655 34.4863 117.888 34.4863C117.08 34.4863 116.666 33.8233 116.666 33.15C116.666 32.4871 117.08 31.8345 117.888 31.8345C118.655 31.8345 119.131 32.5078 119.131 33.1604ZM124.043 34.8385C124.043 34.2687 123.567 33.8233 123.007 33.8233C122.427 33.8233 121.951 34.2895 121.951 34.8488C121.951 35.4185 122.438 35.8536 123.007 35.8536C123.567 35.8536 124.043 35.4082 124.043 34.8385Z" fill="#000"/>
</svg>
